 <svg  version="1.0" xmlns="http://www.w3.org/2000/svg"  width="64.000000pt" height="64.000000pt" viewBox="0 0 64.000000 64.000000"  preserveAspectRatio="xMidYMid meet">  <g transform="translate(0.000000,64.000000) scale(0.100000,-0.100000)" fill="#20b172" stroke="none"> <path d="M140 552 c-44 -22 -80 -75 -80 -120 0 -38 35 -108 58 -117 10 -4 8 6 -8 32 -14 23 -23 56 -24 86 -1 42 3 52 29 74 36 31 43 17 16 -28 -25 -40 -26 -67 -5 -94 15 -19 15 -19 9 5 -4 16 2 44 14 73 11 26 18 47 14 47 -3 0 1 7 8 16 10 12 23 14 53 10 22 -4 46 -12 53 -18 16 -13 28 -4 18 12 -10 16 -69 40 -97 40 -13 0 -39 -8 -58 -18z"/> <path d="M370 549 c-42 -25 -160 -139 -160 -155 0 -16 46 -35 67 -27 10 3 37 24 61 47 l43 41 72 -74 71 -73 23 28 c97 122 -45 292 -177 213z m138 -54 c29 -46 29 -125 -1 -125 -5 0 -32 20 -58 45 -26 25 -58 45 -69 45 -12 0 -41 -15 -64 -34 -23 -19 -47 -32 -53 -28 -15 10 8 37 77 90 46 35 63 42 100 42 40 0 47 -4 68 -35z"/> <path d="M150 300 c-25 -25 -23 -52 6 -64 11 -5 25 -19 30 -30 5 -12 16 -21 24 -21 8 0 17 -9 20 -20 3 -10 15 -22 25 -25 11 -3 20 -11 20 -19 0 -22 32 -38 52 -25 32 20 39 42 20 61 -14 15 -21 16 -37 5 -19 -12 -20 -11 -8 8 11 16 10 23 -5 37 -14 15 -21 16 -37 5 -19 -12 -20 -11 -8 8 11 16 10 23 -4 37 -16 16 -19 16 -40 -2 -13 -11 -17 -13 -10 -5 18 21 15 48 -8 60 -16 8 -24 6 -40 -10z"/> <path d="M523 278 c5 -17 3 -28 -6 -31 -9 -4 -9 -7 0 -17 10 -11 15 -11 28 0 21 17 19 33 -6 56 -22 19 -22 19 -16 -8z"/> <path d="M480 220 c0 -11 -59 -70 -71 -70 -15 0 -10 -20 6 -26 23 -9 47 15 39 39 -5 16 -3 19 11 13 19 -7 45 9 45 29 0 7 -7 15 -15 19 -8 3 -15 1 -15 -4z"/> <path d="M366 111 c-20 -22 -20 -31 -1 -31 17 0 39 36 26 44 -4 3 -16 -3 -25 -13z"/> <path d="M192 50 c-87 -13 -85 -31 4 -38 38 -3 55 -1 50 6 -3 6 7 13 24 17 41 9 132 -4 124 -17 -8 -12 101 -6 113 5 11 12 -3 18 -68 27 -74 11 -171 11 -247 0z"/> </g> </svg> 